<svg xmlns="http://www.w3.org/2000/svg" xmlns:xlink="http://www.w3.org/1999/xlink" version="1.1" x="0px" y="0px" viewBox="0 0 16 20" style="enable-background:new 0 0 16 16;" xml:space="preserve"><g><path d="M14,13H2c-1.103,0-2-0.897-2-2V2c0-0.276,0.224-0.5,0.5-0.5S1,1.724,1,2v9c0,0.552,0.449,1,1,1h12   c0.276,0,0.5,0.224,0.5,0.5S14.276,13,14,13z"/><path d="M15.5,14.5c-0.276,0-0.5-0.224-0.5-0.5V5c0-0.551-0.448-1-1-1H2C1.724,4,1.5,3.776,1.5,3.5S1.724,3,2,3h12   c1.103,0,2,0.897,2,2v9C16,14.276,15.776,14.5,15.5,14.5z"/><path d="M3.5,4C3.224,4,3,3.776,3,3.5V1H2C1.449,1,1,1.449,1,2s0.449,1,1,1c0.276,0,0.5,0.224,0.5,0.5S2.276,4,2,4   C0.897,4,0,3.103,0,2s0.897-2,2-2h1.5C3.776,0,4,0.224,4,0.5v3C4,3.776,3.776,4,3.5,4z"/><path d="M14,16h-1.5c-0.276,0-0.5-0.224-0.5-0.5v-3c0-0.276,0.224-0.5,0.5-0.5s0.5,0.224,0.5,0.5V15h1c0.552,0,1-0.448,1-1   s-0.448-1-1-1c-0.276,0-0.5-0.224-0.5-0.5S13.724,12,14,12c1.103,0,2,0.897,2,2S15.103,16,14,16z"/><rect x="9" y="8" width="1" height="1"/><rect x="7" y="8" width="1" height="1"/><rect x="5" y="8" width="1" height="1"/><rect x="3" y="8" width="1" height="1"/><rect x="0.5" y="8" width="1.5" height="1"/><path d="M11.5,10c-0.128,0-0.256-0.049-0.354-0.146c-0.195-0.195-0.195-0.512,0-0.707l2-2c0.195-0.195,0.512-0.195,0.707,0   s0.195,0.512,0,0.707l-2,2C11.756,9.951,11.628,10,11.5,10z"/><path d="M13.5,10c-0.128,0-0.256-0.049-0.354-0.146l-2-2c-0.195-0.195-0.195-0.512,0-0.707s0.512-0.195,0.707,0l2,2   c0.195,0.195,0.195,0.512,0,0.707C13.756,9.951,13.628,10,13.5,10z"/></g><text x="0" y="31" fill="#000000" font-size="5px" font-weight="bold" font-family="'Helvetica Neue', Helvetica, Arial-Unicode, Arial, Sans-serif">Created by icon 54</text><text x="0" y="36" fill="#000000" font-size="5px" font-weight="bold" font-family="'Helvetica Neue', Helvetica, Arial-Unicode, Arial, Sans-serif">from the Noun Project</text></svg>